<svg height="512pt" viewBox="0 0 512 512" width="512pt" xmlns="http://www.w3.org/2000/svg"><path d="m272.027344 464.824219h16.027344v15.117187h-16.027344zm0 0"/><path d="m280.042969 32.058594h48.085937v15.117187h-48.085937zm0 0"/><path d="m312.097656 256.453125h16.03125v15.117187h-16.03125zm0 0"/><path d="m87.246094 223.941406h-15.117188v-135.785156h39.613282v15.117188h-24.496094zm0 0"/><path d="m72.128906 272.027344h15.117188v16.027344h-15.117188zm0 0"/><path d="m512 16.027344h-96.171875v-16.027344h-191.429687v16.027344h-120.667969v15.117187h120.667969v24.953125h-184.328126v319.660156h431.855469v-319.660156h-56.097656v-24.953125h81.054687v369.566407h-216.839843v15.117187h49.425781l8.015625 64.113281h23.15625v16.941406h-209.28125v-16.941406h72.582031v-15.117187h-47.535156l6.125-48.996094h73.46875v-15.117187h-240.882812v-369.566407h64.570312v-15.117187h-79.6875v399.800781h167.296875l-6.125 48.996094h-24.929687v47.175781h239.515624v-47.175781h-24.929687l-6.125-48.996094h167.296875zm-55.1875 55.1875v289.425781h-401.625v-289.425781h169.210938v232.414062h191.429687v-103.730468h-15.117187v88.613281h-161.195313v-273.394531h161.195313v160.738281h15.117187v-104.640625zm0 0"/><path d="m239.972656 464.824219h16.027344v15.117187h-16.027344zm0 0"/><path d="m304.085938 464.824219h16.027343v15.117187h-16.027343zm0 0"/><path d="m344.15625 32.058594h16.027344v15.117187h-16.027344zm0 0"/><path d="m320.113281 96.171875c-35.101562 0-63.65625 28.554687-63.65625 63.65625 0 17.007813 6.621094 32.992187 18.640625 45.015625 12.023438 12.023438 28.007813 18.644531 45.015625 18.644531 35.101563 0 63.660157-28.558593 63.660157-63.660156s-28.558594-63.65625-63.660157-63.65625zm47.949219 56.097656h-40.390625v-40.390625c20.722656 3.253906 37.136719 19.667969 40.390625 40.390625zm-55.507812-40.390625v44.820313l-31.695313 31.695312c-6.027344-8.246093-9.285156-18.152343-9.285156-28.566406 0-24.195313 17.792969-44.308594 40.980469-47.949219zm7.558593 96.492188c-10.410156 0-20.316406-3.261719-28.5625-9.289063l31.695313-31.695312h44.816406c-3.640625 23.1875-23.753906 40.984375-47.949219 40.984375zm0 0"/><path d="m72.128906 239.972656h15.117188v16.027344h-15.117188zm0 0"/><path d="m72.128906 304.085938h15.117188v16.027343h-15.117188zm0 0"/><path d="m191.429688 207.914062h-15.117188v120.667969h-16.9375v-80.597656h-15.117188v80.597656h-16.941406v-48.539062h-15.117187v48.539062h-16.484375v15.117188h320.570312v-15.117188h-224.855468zm0 0"/></svg>