<?xml version="1.0" encoding="iso-8859-1"?>
<!-- Generator: Adobe Illustrator 19.0.0, SVG Export Plug-In . SVG Version: 6.00 Build 0)  -->
<svg version="1.1" id="Capa_1" xmlns="http://www.w3.org/2000/svg" xmlns:xlink="http://www.w3.org/1999/xlink" x="0px" y="0px"
	 viewBox="0 0 480 480" style="enable-background:new 0 0 480 480;" xml:space="preserve">
<g>
	<g>
		<path d="M472,448h-64V8c0-4.418-3.582-8-8-8h-48c-4.418,0-8,3.582-8,8v440h-24V104c0-4.418-3.582-8-8-8h-48c-4.418,0-8,3.582-8,8
			v344h-24V192c0-4.418-3.582-8-8-8h-48c-4.418,0-8,3.582-8,8v256h-24V280c0-4.418-3.582-8-8-8H88c-4.418,0-8,3.582-8,8v168H32V8
			c0-4.418-3.582-8-8-8H8C3.582,0,0,3.582,0,8s3.582,8,8,8h8v80H8c-4.418,0-8,3.582-8,8s3.582,8,8,8h8v72H8c-4.418,0-8,3.582-8,8
			s3.582,8,8,8h8v72H8c-4.418,0-8,3.582-8,8s3.582,8,8,8h8v72H8c-4.418,0-8,3.582-8,8s3.582,8,8,8h8v72H8c-4.418,0-8,3.582-8,8
			s3.582,8,8,8h8v8c0,4.418,3.582,8,8,8s8-3.582,8-8v-8h73.6v8c0,4.418,3.582,8,8,8c4.418,0,8-3.582,8-8v-8H192v8
			c0,4.418,3.582,8,8,8s8-3.582,8-8v-8h72v8c0,4.418,3.582,8,8,8s8-3.582,8-8v-8h72v8c0,4.418,3.582,8,8,8s8-3.582,8-8v-8h80v8
			c0,4.418,3.582,8,8,8s8-3.582,8-8v-16C480,451.582,476.418,448,472,448z M128,448H96V288h32V448z M216,448h-32V200h32V448z
			 M304,448h-32V112h32V448z M392,448h-32V16h32V448z"/>
	</g>
</g>
<g>
</g>
<g>
</g>
<g>
</g>
<g>
</g>
<g>
</g>
<g>
</g>
<g>
</g>
<g>
</g>
<g>
</g>
<g>
</g>
<g>
</g>
<g>
</g>
<g>
</g>
<g>
</g>
<g>
</g>
</svg>
